<?xml version="1.0" encoding="UTF-8" standalone="no"?><!DOCTYPE svg PUBLIC "-//W3C//DTD SVG 1.1//EN" "http://www.w3.org/Graphics/SVG/1.1/DTD/svg11.dtd"><svg width="100%" height="100%" viewBox="0 0 2834 2834" version="1.1" xmlns="http://www.w3.org/2000/svg" xmlns:xlink="http://www.w3.org/1999/xlink" xml:space="preserve" xmlns:serif="http://www.serif.com/" style="fill-rule:evenodd;clip-rule:evenodd;stroke-linecap:round;stroke-linejoin:round;stroke-miterlimit:1.5;"><path d="M2708.333,256.039l0,2321.256l-131.039,131.039l-2321.256,0l-131.039,-131.039l0,-2321.256l131.039,-131.039l2321.256,0l131.039,131.039Z" style="fill:#363636;stroke:#252525;stroke-width:104.17px;"/><g><path d="M1364.682,427.067l0,887.513l-50.102,50.102l-887.513,0l-50.102,-50.102l0,-887.513l50.102,-50.102l887.513,0l50.102,50.102Z" style="fill:#636363;"/><path d="M832.459,677.235l0,76.765l-39.512,39.512l-296.286,0l-39.512,-39.512l0,-76.765l39.512,-39.512l296.286,0l39.512,39.512Z" style="fill:none;stroke:#c68257;stroke-width:33.33px;"/></g><g><path d="M1364.682,1518.753l0,887.513l-50.102,50.102l-887.513,0l-50.102,-50.102l0,-887.513l50.102,-50.102l887.513,0l50.102,50.102Z" style="fill:#636363;"/><path d="M832.459,1767.793l0,79.023l-38.383,38.383l-298.543,0l-38.383,-38.383l0,-79.023l38.383,-38.383l298.543,0l38.383,38.383Z" style="fill:none;stroke:#c68257;stroke-width:33.33px;"/></g><g><path d="M2456.368,1518.753l0,887.513l-50.102,50.102l-887.513,0l-50.102,-50.102l0,-887.513l50.102,-50.102l887.513,0l50.102,50.102Z" style="fill:#636363;"/><path d="M1924.146,1768.922l0,76.765l-39.512,39.512l-296.286,0l-39.512,-39.512l0,-76.765l39.512,-39.512l296.286,0l39.512,39.512Z" style="fill:none;stroke:#c68257;stroke-width:33.33px;"/></g><g><g><path d="M2456.368,427.067l0,887.513l-50.102,50.102l-887.513,0l-50.102,-50.102l0,-887.513l50.102,-50.102l887.513,0l50.102,50.102Z" style="fill:#5a5689;"/></g><path d="M2456.368,427.067l0,887.513l-50.102,50.102l-887.513,0l-50.102,-50.102l0,-887.513l50.102,-50.102l887.513,0l50.102,50.102Z" style="fill:#5a5689;"/><path d="M1924.146,673.611l0,76.765l-39.512,39.512l-296.286,0l-39.512,-39.512l0,-76.765l39.512,-39.512l296.286,0l39.512,39.512Z" style="fill:none;stroke:#c68257;stroke-opacity:0.5;stroke-width:33.33px;"/></g></svg>